<?xml version="1.0" encoding="UTF-8" standalone="no"?>
<!-- Created with Inkscape (http://www.inkscape.org/) -->

<svg
   version="1.1"
   id="svg1"
   width="686.12"
   height="93.09333"
   viewBox="0 0 686.12 93.09333"
   sodipodi:docname="helmutlogo_long.svg"
   inkscape:version="1.3.2 (091e20e, 2023-11-25)"
   xmlns:inkscape="http://www.inkscape.org/namespaces/inkscape"
   xmlns:sodipodi="http://sodipodi.sourceforge.net/DTD/sodipodi-0.dtd"
   xmlns="http://www.w3.org/2000/svg"
   xmlns:svg="http://www.w3.org/2000/svg">
  <defs
     id="defs1" />
  <sodipodi:namedview
     id="namedview1"
     pagecolor="#ffffff"
     bordercolor="#000000"
     borderopacity="0.25"
     inkscape:showpageshadow="2"
     inkscape:pageopacity="0.0"
     inkscape:pagecheckerboard="0"
     inkscape:deskcolor="#d1d1d1"
     inkscape:zoom="1.3408733"
     inkscape:cx="342.6871"
     inkscape:cy="49.967434"
     inkscape:window-width="1408"
     inkscape:window-height="449"
     inkscape:window-x="155"
     inkscape:window-y="256"
     inkscape:window-maximized="0"
     inkscape:current-layer="g1">
    <inkscape:page
       x="0"
       y="0"
       inkscape:label="1"
       id="page1"
       width="686.12"
       height="93.09333"
       margin="0"
       bleed="0" />
  </sodipodi:namedview>
  <g
     id="g1"
     inkscape:groupmode="layer"
     inkscape:label="1">
    <g
       id="group-R5">
      <path
         id="path2"
         d="M 213.035,128.027 H 151.531 V 321.309 H 61.5195 V 128.027 H 0 v 406.645 l 61.5195,19.691 v -172.73 h 90.0115 v 172.73 h 61.504 V 128.027"
         style="fill:#231f20;fill-opacity:1;fill-rule:nonzero;stroke:none"
         transform="matrix(0.13333333,0,0,-0.13333333,0,93.093333)" />
      <path
         id="path3"
         d="m 379.906,445.793 c 0,21.383 -4.445,36.293 -13.363,44.699 -8.914,8.41 -19.449,12.617 -31.645,12.617 -12.726,0 -23.418,-4.472 -32.043,-13.386 -8.644,-8.907 -12.96,-19.469 -12.96,-31.688 L 290,315.898 c 17.258,8.653 31.379,17.305 42.289,25.977 10.934,8.66 19.934,17.559 27.059,26.746 8.117,11.215 13.574,22.899 16.375,35.145 2.785,12.234 4.183,26.238 4.183,42.027 z M 436.91,224.336 c 0,-14.746 -2.672,-28.613 -7.984,-41.563 -5.348,-12.988 -12.699,-24.316 -22.078,-33.984 -9.375,-9.656 -20.422,-17.285 -33.11,-22.883 -12.664,-5.574 -26.379,-8.367 -41.097,-8.367 -14.711,0 -28.422,2.793 -41.118,8.367 -12.668,5.598 -23.714,13.227 -33.093,22.883 -9.371,9.668 -16.735,20.996 -22.067,33.984 -5.343,12.95 -7.984,26.817 -7.984,41.563 V 457.82 c 0,14.719 2.789,28.571 8.367,41.555 5.578,12.973 13.18,24.293 22.809,33.961 9.648,9.648 20.925,17.293 33.875,22.894 12.937,5.594 26.742,8.395 41.468,8.395 14.704,0 28.54,-2.668 41.454,-8.016 12.957,-5.343 24.246,-12.988 33.863,-22.91 9.629,-9.926 17.262,-22.004 22.836,-36.258 5.597,-14.261 8.371,-30.558 8.371,-48.878 0,-26.985 -2.559,-49.762 -7.621,-68.344 -5.078,-18.582 -12.949,-35.258 -23.61,-49.996 -12.187,-16.297 -28.035,-30.926 -47.586,-43.907 -19.554,-12.988 -43.789,-26.843 -72.71,-41.621 v -20.593 c 0,-12.754 3.937,-23.438 11.824,-32.098 7.894,-8.645 18.199,-12.961 30.922,-12.961 12.226,0 22.386,4.336 30.547,13.016 8.136,8.683 12.222,19.406 12.222,32.179 v 6.895 l 61.449,20.664 0.051,-27.461"
         style="fill:#231f20;fill-opacity:1;fill-rule:nonzero;stroke:none"
         transform="matrix(0.13333333,0,0,-0.13333333,0,93.093333)" />
      <path
         id="path4"
         d="m 517.441,128.027 h -61.503 v 549.567 l 61.503,20.558 V 128.027"
         style="fill:#231f20;fill-opacity:1;fill-rule:nonzero;stroke:none"
         transform="matrix(0.13333333,0,0,-0.13333333,0,93.093333)" />
      <path
         id="path5"
         d="m 883.203,128.027 h -61.519 v 324.18 c 0,12.172 -3.7,22.703 -11.098,31.586 -7.398,8.859 -17.195,13.305 -29.41,13.305 -12.758,0 -22.696,-4.446 -29.821,-13.305 -7.117,-8.883 -10.691,-19.414 -10.691,-31.586 v -324.18 h -61.519 v 324.18 c 0,12.172 -3.7,22.703 -11.075,31.586 -7.422,8.859 -17.215,13.305 -29.433,13.305 -12.746,0 -22.684,-4.446 -29.797,-13.305 -7.137,-8.883 -10.695,-19.414 -10.695,-31.586 v -324.18 h -61.52 v 426.094 h 41.172 l 13.695,-19.031 c 5.598,8.094 11.949,14.035 19.071,17.836 7.097,3.801 16.503,5.695 28.199,5.695 15.754,0 29.203,-3.422 40.383,-10.266 11.203,-6.843 21.863,-16.824 32.039,-29.976 6.582,13.152 15.32,23.133 26.242,29.976 10.902,6.844 25.496,10.266 43.785,10.266 14.719,0 28.285,-2.773 40.715,-8.359 12.41,-5.594 23.203,-13.207 32.351,-22.844 9.145,-9.641 16.246,-20.91 21.309,-33.844 5.055,-12.933 7.617,-26.754 7.617,-41.457 v -324.09"
         style="fill:#231f20;fill-opacity:1;fill-rule:nonzero;stroke:none"
         transform="matrix(0.13333333,0,0,-0.13333333,0,93.093333)" />
      <path
         id="path6"
         d="M 1108.99,128.027 H 1068 l -13.67,20.547 c -4.08,-5.586 -10.42,-10.879 -19.06,-15.957 -8.62,-5.058 -21.07,-7.59 -37.286,-7.59 -13.234,0 -25.793,2.414 -37.734,7.239 -11.93,4.785 -22.457,11.757 -31.602,20.867 -9.132,9.101 -16.386,20.226 -21.699,33.398 -5.347,13.157 -8.004,28.098 -8.004,44.836 v 322.754 h 61.52 V 231.348 c 0,-12.657 4.055,-23.301 12.211,-31.914 8.144,-8.606 18.558,-12.903 31.294,-12.903 12.19,0 22.5,4.297 30.9,12.903 8.4,8.613 12.6,19.257 12.6,31.914 v 322.773 h 61.52 V 128.027"
         style="fill:#231f20;fill-opacity:1;fill-rule:nonzero;stroke:none"
         transform="matrix(0.13333333,0,0,-0.13333333,0,93.093333)" />
      <path
         id="path7"
         d="m 1240.11,178.496 c 6.07,0 11.65,1.387 16.71,4.18 5.06,2.793 8.89,6.211 11.46,10.293 l 41.81,-45.723 c -7.62,-9.121 -17.63,-16.367 -30.06,-21.719 -12.41,-5.332 -24.96,-7.988 -37.64,-7.988 -30.44,0 -53.99,9.883 -70.69,29.649 -16.71,19.785 -25.05,45.136 -25.05,76.074 v 276.843 h -38.8 v 54.016 h 38.8 v 78.297 l 61.5,20.723 v -99.02 h 81.41 v -54.016 h -81.41 V 223.379 c 0,-29.922 10.65,-44.883 31.96,-44.883"
         style="fill:#231f20;fill-opacity:1;fill-rule:nonzero;stroke:none"
         transform="matrix(0.13333333,0,0,-0.13333333,0,93.093333)" />
      <path
         id="path8"
         d="m 1521.97,215 c 0,-14.699 -2.8,-28.516 -8.39,-41.465 -5.57,-12.93 -13.17,-24.18 -22.78,-33.828 -9.6,-9.609 -20.89,-17.238 -33.8,-22.805 -12.94,-5.593 -26.73,-8.379 -41.44,-8.379 -15.19,0 -29.66,2.786 -43.35,8.379 l 16.74,61.692 c 8.1,-5.567 16.99,-8.379 26.61,-8.379 12.19,0 22.68,4.473 31.57,13.301 8.85,8.886 13.32,19.433 13.32,31.582 v 339.265 h 61.52 V 215"
         style="fill:#231f20;fill-opacity:1;fill-rule:nonzero;stroke:none"
         transform="matrix(0.13333333,0,0,-0.13333333,0,93.093333)" />
      <path
         id="path9"
         d="m 1502.09,609.434 c 0,-10.649 -3.07,-19.801 -9.21,-27.391 -6.14,-7.625 -13.83,-11.418 -23.04,-11.418 -9.24,0 -16.91,3.918 -23.05,11.785 -6.14,7.852 -9.21,16.863 -9.21,27.024 0,9.629 3.07,18.359 9.21,26.246 6.14,7.855 13.81,11.797 23.05,11.797 9.21,0 16.9,-3.825 23.04,-11.422 6.14,-7.614 9.21,-16.504 9.21,-26.621"
         style="fill:#231f20;fill-opacity:1;fill-rule:nonzero;stroke:none"
         transform="matrix(0.13333333,0,0,-0.13333333,0,93.093333)" />
      <path
         id="path10"
         d="m 1689.1,445.793 c 0,21.383 -4.45,36.293 -13.35,44.699 -8.91,8.41 -19.46,12.617 -31.66,12.617 -12.72,0 -23.41,-4.472 -32.04,-13.386 -8.65,-8.907 -12.95,-19.469 -12.95,-31.688 l 0.11,-142.137 c 17.25,8.653 31.36,17.305 42.28,25.977 10.92,8.66 19.93,17.559 27.06,26.746 8.1,11.215 13.57,22.899 16.36,35.145 2.79,12.234 4.19,26.238 4.19,42.027 z m 57.02,-221.457 c 0,-14.746 -2.68,-28.613 -8,-41.563 -5.33,-12.988 -12.7,-24.316 -22.07,-33.984 -9.38,-9.656 -20.42,-17.285 -33.11,-22.883 -12.69,-5.574 -26.38,-8.367 -41.08,-8.367 -14.73,0 -28.46,2.793 -41.13,8.367 -12.68,5.598 -23.72,13.227 -33.1,22.883 -9.37,9.668 -16.75,20.996 -22.06,33.984 -5.35,12.95 -8,26.817 -8,41.563 V 457.82 c 0,14.719 2.8,28.571 8.37,41.555 5.57,12.973 13.18,24.293 22.82,33.961 9.62,9.648 20.92,17.293 33.87,22.894 12.95,5.594 26.75,8.395 41.46,8.395 14.7,0 28.53,-2.668 41.48,-8.016 12.94,-5.343 24.21,-12.988 33.85,-22.91 9.64,-9.926 17.26,-22.004 22.84,-36.258 5.57,-14.261 8.37,-30.558 8.37,-48.878 0,-26.985 -2.56,-49.762 -7.62,-68.344 -5.1,-18.582 -12.98,-35.258 -23.62,-49.996 -12.18,-16.297 -28.04,-30.926 -47.58,-43.907 -19.55,-12.988 -43.79,-26.843 -72.71,-41.621 v -20.593 c 0,-12.754 3.94,-23.438 11.83,-32.098 7.86,-8.645 18.19,-12.961 30.93,-12.961 12.2,0 22.37,4.336 30.53,13.016 8.14,8.683 12.22,19.406 12.22,32.179 v 6.895 l 61.46,20.664 0.05,-27.461"
         style="fill:#231f20;fill-opacity:1;fill-rule:nonzero;stroke:none"
         transform="matrix(0.13333333,0,0,-0.13333333,0,93.093333)" />
      <path
         id="path11"
         d="m 1907.64,231.543 v 226.562 c 0,12.204 -4.45,22.723 -13.37,31.653 -8.9,8.894 -19.44,13.351 -31.63,13.351 -12.74,0 -23.42,-4.457 -32.05,-13.351 -8.65,-8.93 -12.97,-19.449 -12.97,-31.653 V 231.543 c 0,-12.715 4.32,-23.418 12.97,-32.031 8.63,-8.653 19.31,-12.981 32.05,-12.981 12.19,0 22.73,4.328 31.63,12.981 8.92,8.613 13.37,19.316 13.37,32.031 z m 61.52,-103.516 h -41.01 l -13.66,20.547 c -2.54,-5.078 -9.26,-10.273 -20.18,-15.566 -10.94,-5.293 -24.26,-7.981 -39.98,-7.981 -14.72,0 -28.06,2.813 -39.99,8.371 -11.93,5.567 -22.2,13.204 -30.83,22.84 -8.62,9.68 -15.36,20.969 -20.18,33.918 -4.83,12.949 -7.22,26.797 -7.22,41.543 v 226.27 c 0,14.722 2.14,28.562 6.46,41.5 4.32,12.949 10.39,24.246 18.28,33.91 7.88,9.644 17.64,17.273 29.31,22.851 11.67,5.594 24.88,8.395 39.6,8.395 14.71,0 27.15,-2.535 37.32,-7.598 10.15,-5.062 17,-10.379 20.56,-15.937 v 136.586 l 61.52,20.476 V 128.027"
         style="fill:#231f20;fill-opacity:1;fill-rule:nonzero;stroke:none"
         transform="matrix(0.13333333,0,0,-0.13333333,0,93.093333)" />
      <path
         id="path12"
         d="m 2136.68,445.793 c 0,21.383 -4.45,36.293 -13.38,44.699 -8.9,8.41 -19.46,12.617 -31.63,12.617 -12.74,0 -23.44,-4.472 -32.05,-13.386 -8.65,-8.907 -12.95,-19.469 -12.95,-31.688 l 0.1,-142.137 c 17.25,8.653 31.36,17.305 42.29,25.977 10.93,8.66 19.93,17.559 27.04,26.746 8.14,11.215 13.59,22.899 16.38,35.145 2.79,12.234 4.2,26.238 4.2,42.027 z m 57.01,-221.457 c 0,-14.746 -2.67,-28.613 -8,-41.563 -5.34,-12.988 -12.71,-24.316 -22.09,-33.984 -9.37,-9.656 -20.41,-17.285 -33.08,-22.883 -12.7,-5.574 -26.37,-8.367 -41.1,-8.367 -14.72,0 -28.44,2.793 -41.12,8.367 -12.7,5.598 -23.73,13.227 -33.11,22.883 -9.37,9.668 -16.73,20.996 -22.06,33.984 -5.34,12.95 -7.99,26.817 -7.99,41.563 V 457.82 c 0,14.719 2.79,28.571 8.37,41.555 5.57,12.973 13.18,24.293 22.81,33.961 9.64,9.648 20.94,17.293 33.87,22.894 12.94,5.594 26.77,8.395 41.48,8.395 14.7,0 28.53,-2.668 41.46,-8.016 12.94,-5.343 24.22,-12.988 33.86,-22.91 9.63,-9.926 17.25,-22.004 22.83,-36.258 5.58,-14.261 8.37,-30.558 8.37,-48.878 0,-26.985 -2.56,-49.762 -7.62,-68.344 -5.09,-18.582 -12.96,-35.258 -23.6,-49.996 -12.2,-16.297 -28.05,-30.926 -47.6,-43.907 -19.55,-12.988 -43.78,-26.843 -72.7,-41.621 v -20.593 c 0,-12.754 3.93,-23.438 11.83,-32.098 7.87,-8.645 18.17,-12.961 30.92,-12.961 12.21,0 22.39,4.336 30.54,13.016 8.14,8.683 12.21,19.406 12.21,32.179 v 6.895 l 61.48,20.664 0.04,-27.461"
         style="fill:#231f20;fill-opacity:1;fill-rule:nonzero;stroke:none"
         transform="matrix(0.13333333,0,0,-0.13333333,0,93.093333)" />
      <path
         id="path13"
         d="m 2319.05,558.621 c 8.64,0 15.97,-1.144 22.07,-3.422 6.07,-2.301 10.9,-5.203 14.47,-8.75 l -21.31,-54.785 c -6.11,3.555 -11.17,5.328 -15.23,5.328 -12.67,0 -23.32,-4.465 -31.94,-13.316 -8.63,-8.863 -12.92,-19.379 -12.92,-31.559 v -324.09 h -61.52 v 426.094 h 41.01 l 13.67,-25.922 c 3.53,7.071 9.6,13.918 18.22,20.528 8.63,6.582 19.8,9.894 33.48,9.894"
         style="fill:#231f20;fill-opacity:1;fill-rule:nonzero;stroke:none"
         transform="matrix(0.13333333,0,0,-0.13333333,0,93.093333)" />
      <path
         id="path14"
         d="m 2582.34,128.027 h -70.72 l -89.76,228.344 V 128.027 h -61.53 v 549.567 l 61.53,20.558 V 428.699 l 80.61,125.422 67.71,0.934 -101.94,-159.078 114.1,-267.95"
         style="fill:#231f20;fill-opacity:1;fill-rule:nonzero;stroke:none"
         transform="matrix(0.13333333,0,0,-0.13333333,0,93.093333)" />
      <path
         id="path15"
         d="m 2805.44,128.027 h -61.51 v 324.18 c 0,12.172 -4.92,22.703 -14.74,31.586 -9.84,8.859 -20.79,13.305 -32.89,13.305 -12.62,0 -23.82,-4.446 -33.64,-13.305 -9.85,-8.883 -14.74,-19.414 -14.74,-31.586 v -324.18 h -61.51 v 426.094 h 40.97 l 13.67,-19.031 c 5.55,8.094 13.27,14.035 23.12,17.836 9.83,3.801 20.57,5.695 32.2,5.695 14.64,0 28.53,-2.773 41.65,-8.359 13.14,-5.594 24.74,-13.207 34.84,-22.844 10.11,-9.641 18.05,-20.91 23.87,-33.844 5.81,-12.933 8.71,-26.754 8.71,-41.457 v -324.09"
         style="fill:#231f20;fill-opacity:1;fill-rule:nonzero;stroke:none"
         transform="matrix(0.13333333,0,0,-0.13333333,0,93.093333)" />
      <path
         id="path16"
         d="m 3031.67,128.027 h -41.01 l -13.67,20.547 c -4.06,-5.586 -10.42,-10.879 -19.05,-15.957 -8.62,-5.058 -21.06,-7.59 -37.3,-7.59 -13.22,0 -25.79,2.414 -37.71,7.239 -11.93,4.785 -22.47,11.757 -31.59,20.867 -9.15,9.101 -16.39,20.226 -21.71,33.398 -5.36,13.157 -8,28.098 -8,44.836 v 322.754 h 61.5 V 231.348 c 0,-12.657 4.07,-23.301 12.22,-31.914 8.14,-8.606 18.58,-12.903 31.3,-12.903 12.2,0 22.49,4.297 30.9,12.903 8.39,8.613 12.62,19.257 12.62,31.914 v 322.773 h 61.5 V 128.027"
         style="fill:#231f20;fill-opacity:1;fill-rule:nonzero;stroke:none"
         transform="matrix(0.13333333,0,0,-0.13333333,0,93.093333)" />
      <path
         id="path17"
         d="m 2874.81,570.625 c -10.14,0 -18.39,3.438 -24.73,10.336 -6.33,6.894 -9.48,15.227 -9.48,24.918 0,10.23 3.15,18.648 9.48,25.301 6.34,6.629 14.59,9.972 24.73,9.972 9.61,0 17.87,-3.343 24.73,-9.972 6.82,-6.653 10.25,-15.071 10.25,-25.301 0,-9.691 -3.43,-18.024 -10.25,-24.918 -6.86,-6.898 -15.12,-10.336 -24.73,-10.336"
         style="fill:#231f20;fill-opacity:1;fill-rule:nonzero;stroke:none"
         transform="matrix(0.13333333,0,0,-0.13333333,0,93.093333)" />
      <path
         id="path18"
         d="m 2979.77,570.625 c -9.15,0 -17.11,3.438 -23.97,10.336 -6.84,6.894 -10.26,15.227 -10.26,24.918 0,10.23 3.42,18.648 10.26,25.301 6.86,6.629 14.82,9.972 23.97,9.972 10.12,0 18.38,-3.343 24.73,-9.972 6.33,-6.653 9.51,-15.071 9.51,-25.301 0,-9.691 -3.18,-18.024 -9.51,-24.918 -6.35,-6.898 -14.61,-10.336 -24.73,-10.336"
         style="fill:#231f20;fill-opacity:1;fill-rule:nonzero;stroke:none"
         transform="matrix(0.13333333,0,0,-0.13333333,0,93.093333)" />
      <path
         id="path19"
         d="m 3112.21,128.027 h -61.5 v 549.567 l 61.5,20.558 V 128.027"
         style="fill:#231f20;fill-opacity:1;fill-rule:nonzero;stroke:none"
         transform="matrix(0.13333333,0,0,-0.13333333,0,93.093333)" />
      <path
         id="path20"
         d="m 3192.91,128.027 h -61.51 v 549.567 l 61.51,20.558 V 128.027"
         style="fill:#231f20;fill-opacity:1;fill-rule:nonzero;stroke:none"
         transform="matrix(0.13333333,0,0,-0.13333333,0,93.093333)" />
      <path
         id="path21"
         d="m 3360.61,445.793 c 0,21.383 -4.45,36.293 -13.35,44.699 -8.9,8.41 -19.46,12.617 -31.65,12.617 -12.74,0 -23.43,-4.472 -32.05,-13.386 -8.66,-8.907 -12.97,-19.469 -12.97,-31.688 l 0.11,-142.137 c 17.26,8.653 31.38,17.305 42.3,25.977 10.93,8.66 19.93,17.559 27.07,26.746 8.09,11.215 13.56,22.899 16.36,35.145 2.77,12.234 4.18,26.238 4.18,42.027 z m 57.03,-221.457 c 0,-14.746 -2.68,-28.613 -8.01,-41.563 -5.34,-12.988 -12.7,-24.316 -22.08,-33.984 -9.38,-9.656 -20.42,-17.285 -33.1,-22.883 -12.68,-5.574 -26.36,-8.367 -41.1,-8.367 -14.72,0 -28.43,2.793 -41.11,8.367 -12.68,5.598 -23.72,13.227 -33.1,22.883 -9.38,9.668 -16.75,20.996 -22.07,33.984 -5.33,12.95 -7.99,26.817 -7.99,41.563 V 457.82 c 0,14.719 2.8,28.571 8.37,41.555 5.58,12.973 13.18,24.293 22.8,33.961 9.65,9.648 20.95,17.293 33.89,22.894 12.94,5.594 26.75,8.395 41.47,8.395 14.69,0 28.53,-2.668 41.48,-8.016 12.92,-5.343 24.2,-12.988 33.84,-22.91 9.64,-9.926 17.25,-22.004 22.84,-36.258 5.58,-14.261 8.36,-30.558 8.36,-48.878 0,-26.985 -2.54,-49.762 -7.62,-68.344 -5.09,-18.582 -12.97,-35.258 -23.61,-49.996 -12.19,-16.297 -28.04,-30.926 -47.59,-43.907 -19.53,-12.988 -43.79,-26.843 -72.72,-41.621 v -20.593 c 0,-12.754 3.94,-23.438 11.85,-32.098 7.87,-8.645 18.19,-12.961 30.91,-12.961 12.22,0 22.39,4.336 30.55,13.016 8.14,8.683 12.21,19.406 12.21,32.179 v 6.895 l 61.49,20.664 0.04,-27.461"
         style="fill:#231f20;fill-opacity:1;fill-rule:nonzero;stroke:none"
         transform="matrix(0.13333333,0,0,-0.13333333,0,93.093333)" />
      <path
         id="path22"
         d="m 3542.99,558.621 c 8.63,0 15.97,-1.144 22.06,-3.422 6.08,-2.301 10.91,-5.203 14.47,-8.75 l -21.32,-54.785 c -6.08,3.555 -11.15,5.328 -15.21,5.328 -12.67,0 -23.32,-4.465 -31.95,-13.316 -8.63,-8.863 -12.9,-19.379 -12.9,-31.559 v -324.09 h -61.52 v 426.094 h 41.01 l 13.65,-25.922 c 3.54,7.071 9.63,13.918 18.25,20.528 8.62,6.582 19.78,9.894 33.46,9.894"
         style="fill:#231f20;fill-opacity:1;fill-rule:nonzero;stroke:none"
         transform="matrix(0.13333333,0,0,-0.13333333,0,93.093333)" />
      <path
         id="path23"
         d="m 4468.99,172.422 c -1.7,19.004 -3.78,31.211 -6.22,36.641 -6.34,13.171 -14.75,19.472 -25.23,18.886 -11.22,-0.578 -18.3,-5.32 -21.22,-14.238 -6.34,-18.996 -9.15,-32.461 -8.42,-40.41 0.97,-11.629 1.7,-19.09 2.2,-22.383 1.21,-8.145 3.04,-14.238 5.49,-18.313 5.11,-8.718 12.92,-12.89 23.4,-12.5 14.39,0.774 22.81,5.911 25.24,15.403 4.14,16.094 5.73,28.398 4.76,36.914 z m 15.41,9.902 c -0.96,-18.418 -4.1,-33.906 -9.41,-46.496 -8.7,-19.375 -21.98,-28.855 -39.84,-28.476 -15.94,0.382 -27.16,9.882 -33.68,28.476 -4.59,12.395 -6.52,26.731 -5.79,43 0.96,17.43 4.22,32.637 9.78,45.625 8.68,19.363 21.48,28.848 38.39,28.477 16.17,-0.391 27.63,-9.688 34.39,-27.891 4.84,-12.402 6.88,-26.641 6.16,-42.715"
         style="fill:#231f20;fill-opacity:1;fill-rule:nonzero;stroke:none"
         transform="matrix(0.13333333,0,0,-0.13333333,0,93.093333)" />
      <path
         id="path24"
         d="m 4552.58,224.441 -11.24,5.891 c -2.18,0 -4.6,0.09 -7.26,0.273 -0.73,0 -1.58,0 -2.54,0 -7.98,0 -14.15,-3.671 -18.49,-11.027 -5.09,-8.894 -7.26,-17.508 -6.53,-25.828 l 6.14,-58.34 15.26,-11.035 -44.25,-12.773 4.54,10.769 1.26,123.652 -8.69,9.028 36.62,-2.043 -9.43,-11.66 -2.17,-12.832 c 1.45,5.761 4.35,11.25 8.69,16.445 5.57,6.719 11.24,10.09 17.05,10.09 0.48,0 0.97,-0.102 1.45,-0.285 3.14,0 6.77,-0.11 10.89,-0.293 l 8.7,-30.032"
         style="fill:#231f20;fill-opacity:1;fill-rule:nonzero;stroke:none"
         transform="matrix(0.13333333,0,0,-0.13333333,0,93.093333)" />
      <path
         id="path25"
         d="m 4632.84,176.484 -4.35,-6.093 c -3.63,-33.528 -17.04,-50.286 -40.26,-50.286 -14.99,0 -26.11,9.004 -33.36,27.043 -4.84,12.403 -7.25,26.258 -7.25,41.582 0,17.04 2.41,32.266 7.25,45.645 7.49,20.156 19.34,30.234 35.54,30.234 22.96,0 35.78,-16.484 38.44,-49.453 l 3.99,-7.273 -25.02,2.605 2.89,5.801 c -2.9,16.633 -10.16,24.941 -21.76,24.941 -9.69,0 -16.47,-6.191 -20.34,-18.593 -2.66,-9.309 -3.99,-20.742 -3.99,-34.317 0,-13.761 1.93,-25.293 5.81,-34.59 4.83,-11.445 11.73,-17.148 20.68,-17.148 4.36,0 9.08,3.879 14.16,11.648 2.9,4.465 5.08,10.188 6.54,17.18 l -7.98,7.285 29.01,3.789"
         style="fill:#231f20;fill-opacity:1;fill-rule:nonzero;stroke:none"
         transform="matrix(0.13333333,0,0,-0.13333333,0,93.093333)" />
      <path
         id="path26"
         d="m 4725.5,105.234 -38.81,2.317 10.36,9.851 3.18,78.02 c 0.48,8.894 -0.36,16.238 -2.53,22.039 -2.92,7.344 -7.18,11.023 -12.76,11.023 -6.55,0 -12.64,-3.289 -18.21,-9.863 -6.81,-8.308 -10.69,-20.594 -11.65,-36.824 l -2.66,-66.992 9.25,-9.278 -29,-0.293 7,9.871 -6.95,196.915 -10.58,7.843 48.23,-4.062 -11.56,-4.629 -3.73,-83.527 c 3.89,6.71 7.42,11.496 10.58,14.367 5.12,4.793 11.45,7.187 18.99,7.187 13.88,0 23.36,-6.972 28.47,-20.898 1.94,-5.606 3.29,-16.055 4.02,-31.348 l 3.28,-83.008 5.08,-8.711"
         style="fill:#231f20;fill-opacity:1;fill-rule:nonzero;stroke:none"
         transform="matrix(0.13333333,0,0,-0.13333333,0,93.093333)" />
      <path
         id="path27"
         d="m 4793.24,191.301 c 0.48,26.844 -7.16,40.664 -22.9,41.433 -8.96,0.586 -16.36,-4.218 -22.17,-14.386 -4.12,-7.293 -6.67,-15.36 -7.62,-24.168 z m 23.46,-25.266 -10.16,-15.441 c -2.16,-9.903 -5.92,-18.543 -11.24,-25.926 -7.5,-10.48 -17.77,-15.723 -30.83,-15.723 -11.84,0 -21.87,6.211 -30.09,18.633 -8.22,12.422 -12.33,32.11 -12.33,59.082 0,16.688 2.77,31.738 8.33,45.117 7.74,19.414 19.92,29.121 36.59,29.121 7.74,0 14.98,-2.832 21.75,-8.457 5.31,-4.668 9.41,-10.273 12.32,-16.777 2.9,-6.516 4.95,-14.336 6.16,-23.476 0.95,-7.786 1.44,-19.348 1.44,-34.708 l -69.59,4.532 c 0.48,-18.867 2.83,-32.481 7.07,-40.86 4.24,-8.359 10.83,-12.539 19.79,-12.539 10.89,0 18.75,6.621 23.59,19.871 l -12.68,7.305 39.88,10.246"
         style="fill:#231f20;fill-opacity:1;fill-rule:nonzero;stroke:none"
         transform="matrix(0.13333333,0,0,-0.13333333,0,93.093333)" />
      <path
         id="path28"
         d="m 4903.01,198.574 -32.28,3.77 8.34,14.179 c -2.67,12.93 -10.59,19.395 -23.75,19.395 -7.55,0 -13.27,-2.402 -17.17,-7.219 -3.65,-4.043 -5.47,-9.148 -5.47,-15.301 0,-5.976 1.84,-10.39 5.54,-13.281 2.22,-1.933 6.91,-4.14 14.06,-6.64 l 12.72,-4.582 c 7.92,-2.911 13.8,-6.122 17.64,-9.598 6.71,-6.211 10.07,-14.856 10.07,-25.918 0,-11.055 -2.42,-20.469 -7.23,-28.234 -6.53,-10.094 -15.95,-15.137 -28.24,-15.137 -14.49,0 -24.86,6 -31.14,18 -3.13,6.375 -4.95,13.144 -5.44,20.312 l -9.76,7.254 33.73,5.805 -8.71,-11.535 c 0.48,-4.231 1.7,-7.879 3.66,-10.957 3.42,-6.153 9.77,-9.219 19.05,-9.219 12.45,0 18.67,6.055 18.67,18.203 0,9.238 -5.7,15.781 -17.09,19.629 l -10.51,3.758 c -11.43,4.074 -19.19,7.941 -23.32,11.633 -6.08,6.004 -9.1,15.312 -9.1,27.91 0,11.828 2.77,21.707 8.35,29.668 6.77,10.078 16.95,15.117 30.51,15.117 23.5,0 36.57,-14.16 39.24,-42.461 l 7.63,-14.551"
         style="fill:#231f20;fill-opacity:1;fill-rule:nonzero;stroke:none"
         transform="matrix(0.13333333,0,0,-0.13333333,0,93.093333)" />
      <path
         id="path29"
         d="m 4992.95,179.688 -15.49,7.558 -36.02,3.484 c 0,-3.875 -0.38,-14.722 -1.11,-32.554 -0.71,-14.731 -0.83,-22.766 -0.34,-24.125 0.95,-3.485 3.82,-5.223 8.61,-5.223 0.48,0 1.09,0 1.8,0 1.9,0 5.15,0 9.69,0 l 15.45,10.75 -3.61,-29.883 c -6.99,-0.781 -14.22,-1.562 -21.67,-2.343 -0.96,0 -1.92,0 -2.89,0 -10.58,0 -17.81,3.886 -21.66,11.671 -2.17,5.04 -3.26,12.137 -3.26,21.278 v 49.269 l -8.8,-0.879 -12.45,-6.679 8.79,25.586 4.77,-3.496 h 7.69 v 83.906 l -14.35,14.863 48.94,-2.922 -10.31,-12.234 -5.15,-83.32 36.79,1.16 6.92,6.972 7.66,-32.839"
         style="fill:#231f20;fill-opacity:1;fill-rule:nonzero;stroke:none"
         transform="matrix(0.13333333,0,0,-0.13333333,0,93.093333)" />
      <path
         id="path30"
         d="m 5057.96,191.301 c 0.49,26.844 -7.15,40.664 -22.89,41.433 -8.97,0.586 -16.37,-4.218 -22.18,-14.386 -4.12,-7.293 -6.66,-15.36 -7.63,-24.168 z m 23.47,-25.266 -10.17,-15.441 c -2.18,-9.903 -5.93,-18.543 -11.24,-25.926 -7.5,-10.48 -17.78,-15.723 -30.83,-15.723 -11.84,0 -21.89,6.211 -30.1,18.633 -8.22,12.422 -12.31,32.11 -12.31,59.082 0,16.688 2.76,31.738 8.33,45.117 7.71,19.414 19.92,29.121 36.59,29.121 7.71,0 14.97,-2.832 21.73,-8.457 5.31,-4.668 9.43,-10.273 12.32,-16.777 2.9,-6.516 4.94,-14.336 6.15,-23.476 0.97,-7.786 1.47,-19.348 1.47,-34.708 l -69.6,4.532 c 0.49,-18.867 2.84,-32.481 7.08,-40.86 4.23,-8.359 10.82,-12.539 19.78,-12.539 10.88,0 18.75,6.621 23.6,19.871 l -12.71,7.305 39.91,10.246"
         style="fill:#231f20;fill-opacity:1;fill-rule:nonzero;stroke:none"
         transform="matrix(0.13333333,0,0,-0.13333333,0,93.093333)" />
      <path
         id="path31"
         d="m 5144.76,224.441 -11.24,5.891 c -2.17,0 -4.59,0.09 -7.25,0.273 -0.73,0 -1.58,0 -2.55,0 -7.98,0 -14.14,-3.671 -18.49,-11.027 -5.08,-8.894 -7.25,-17.508 -6.53,-25.828 l 6.13,-58.34 15.28,-11.035 -44.25,-12.773 4.53,10.769 1.26,123.652 -8.69,9.028 36.62,-2.043 -9.43,-11.66 -2.17,-12.832 c 1.43,5.761 4.34,11.25 8.69,16.445 5.57,6.719 11.24,10.09 17.05,10.09 0.49,0 0.97,-0.102 1.45,-0.285 3.14,0 6.77,-0.11 10.89,-0.293 l 8.7,-30.032"
         style="fill:#231f20;fill-opacity:1;fill-rule:nonzero;stroke:none"
         transform="matrix(0.13333333,0,0,-0.13333333,0,93.093333)" />
      <path
         id="path32"
         d="m 3712.21,404.977 -39.01,3.578 10.08,13.496 c -3.23,12.293 -12.76,18.445 -28.58,18.445 -9.09,0 -15.98,-2.297 -20.67,-6.898 -4.39,-3.868 -6.59,-8.739 -6.59,-14.629 0,-5.703 2.2,-9.938 6.61,-12.692 2.64,-1.839 8.24,-3.949 16.76,-6.339 l 15.37,-4.286 c 9.57,-2.738 16.67,-5.75 21.33,-9.031 8.12,-5.844 12.18,-13.961 12.18,-24.355 0,-10.403 -2.91,-19.25 -8.74,-26.543 -7.87,-9.493 -19.25,-14.239 -34.11,-14.239 -17.49,0 -30.02,5.664 -37.6,17 -3.79,6.028 -5.98,12.418 -6.56,19.176 l -11.8,6.856 40.76,5.48 -10.53,-11.066 c 0.59,-4.067 2.03,-7.575 4.38,-10.516 4.08,-5.914 11.66,-8.863 22.75,-8.863 14.88,0 22.33,5.801 22.33,17.387 0,8.824 -6.7,15.074 -20.08,18.761 l -12.72,3.582 c -13.71,3.828 -23.03,7.473 -27.99,10.934 -7.29,5.644 -10.93,14.394 -10.93,26.25 0,11.109 3.35,20.406 10.08,27.887 8.16,9.464 20.43,14.207 36.78,14.207 28.32,0 44.08,-13.305 47.3,-39.911 l 9.2,-13.671"
         style="fill:#231f20;fill-opacity:1;fill-rule:nonzero;stroke:none"
         transform="matrix(0.13333333,0,0,-0.13333333,0,93.093333)" />
      <path
         id="path33"
         d="m 3830.27,452.715 -9.34,-11.738 -8.45,-111.653 8.58,-11.179 -40.76,-3.555 14.11,12.801 v 10.089 c -7.58,-15.273 -19.54,-22.89 -35.87,-22.89 -16.34,0 -27.56,6.191 -33.69,18.613 -2.62,5.469 -4.23,14.219 -4.81,26.274 l -2.59,64.601 -11.23,12.317 45.17,6.296 -9.44,-10.132 -2.25,-71.196 c 0,-9.133 0.29,-14.511 0.88,-16.148 3.51,-7.676 9.22,-11.504 17.14,-11.504 16.13,0 26.68,6.75 31.68,20.242 2.92,7.84 4.25,17.785 3.95,29.82 v 58 l -8.66,5.747 45.58,5.195"
         style="fill:#231f20;fill-opacity:1;fill-rule:nonzero;stroke:none"
         transform="matrix(0.13333333,0,0,-0.13333333,0,93.093333)" />
      <path
         id="path34"
         d="m 3921.1,390.699 c 2.63,31.758 -6.51,48 -27.42,48.735 -20.61,0.722 -32.36,-16.618 -35.26,-52.016 -2.64,-30.113 6.37,-45.543 26.99,-46.266 12.48,-0.371 21.9,6.383 28.29,20.258 3.77,8.395 6.24,18.156 7.4,29.289 z m 15.41,8.594 c 0,-16.055 -2.62,-30.203 -7.88,-42.422 -8.16,-19.344 -21.72,-29 -40.68,-29 -8.46,0 -15.74,2.09 -21.88,6.289 -3.49,2.559 -7.28,6.68 -11.36,12.332 l 10.51,-56.316 20.17,-6.281 -60.5,-4.375 10.69,10.117 5.53,163.261 -21.47,12.04 51.72,-2.75 -13.15,-7.684 -3.94,-11.539 c 9.04,13.933 20.85,20.906 35.44,20.906 17.5,0 30.33,-8.668 38.49,-26 5.54,-11.492 8.31,-24.355 8.31,-38.578"
         style="fill:#231f20;fill-opacity:1;fill-rule:nonzero;stroke:none"
         transform="matrix(0.13333333,0,0,-0.13333333,0,93.093333)" />
      <path
         id="path35"
         d="m 4020.06,397.992 c 0.57,25.481 -8.65,38.586 -27.68,39.317 -10.84,0.546 -19.77,-4.004 -26.79,-13.649 -4.98,-6.922 -8.07,-14.57 -9.23,-22.933 z m 28.34,-23.621 -12.28,-14.445 c -2.63,-9.262 -7.15,-17.348 -13.57,-24.242 -9.06,-9.825 -21.49,-14.727 -37.28,-14.727 -14.3,0 -26.44,5.82 -36.37,17.461 -9.94,11.637 -14.91,30.094 -14.91,55.367 0,15.641 3.35,29.727 10.08,42.278 9.33,18.179 24.07,27.277 44.23,27.277 9.33,0 18.1,-2.637 26.28,-7.918 6.41,-4.367 11.37,-9.606 14.87,-15.695 3.51,-6.106 6,-13.434 7.45,-21.985 1.17,-7.289 1.75,-18.117 1.75,-32.5 l -83.94,4.16 c 0.58,-17.617 3.42,-30.332 8.53,-38.132 5.1,-7.813 13.05,-11.719 23.84,-11.719 13.12,0 22.6,6.164 28.45,18.5 l -15.34,6.797 48.21,9.523"
         style="fill:#231f20;fill-opacity:1;fill-rule:nonzero;stroke:none"
         transform="matrix(0.13333333,0,0,-0.13333333,0,93.093333)" />
      <path
         id="path36"
         d="m 4124.98,429.297 -13.57,5.621 c -2.65,0 -5.57,0.082 -8.77,0.266 -0.88,0 -1.92,0 -3.08,0 -9.64,0 -17.1,-3.469 -22.36,-10.395 -6.15,-8.383 -8.76,-16.492 -7.88,-24.328 l 7.14,-54.953 18.73,-10.391 -53.48,-12.031 5.53,10.129 1.47,116.332 -10.51,8.48 44.26,-1.914 -11.39,-10.941 -2.63,-12.047 c 1.76,5.41 5.26,10.551 10.52,15.43 6.72,6.312 13.58,9.472 20.6,9.472 0.59,0 1.16,-0.089 1.75,-0.273 3.8,0 8.18,-0.094 13.16,-0.266 l 10.51,-28.191"
         style="fill:#231f20;fill-opacity:1;fill-rule:nonzero;stroke:none"
         transform="matrix(0.13333333,0,0,-0.13333333,0,93.093333)" />
      <path
         id="path37"
         d="m 3909.22,195.84 v 14.746 c -0.73,11.211 -5.65,21.68 -14.78,31.367 -9.13,9.707 -21.38,14.395 -36.77,14.121 -18.27,-0.566 -31.51,-7.734 -39.73,-21.484 -6.46,-10.684 -9.33,-23.875 -8.6,-39.59 1.76,-37.344 19.65,-55.598 53.66,-54.746 17,0.566 29.12,7.019 36.39,19.375 7.26,12.344 10.53,24.414 9.83,36.211 z m 44.91,88.32 -9.18,-4.648 -8.1,-194.9417 c -1.08,-25.9375 -3.51,-43.9648 -7.26,-54.1211 -3.77,-10.1484 -13,-18.0273 -27.68,-23.67186 C 3889.73,2.25781 3876.28,0 3861.6,0 c -8.23,0 -16.83,1.40625 -25.8,4.21875 -10.39,3.37891 -17.91,7.61715 -22.56,12.65625 -10.05,10.7148 -15.24,29.0039 -15.58,54.9102 v 10.5586 l -13.26,16.4648 60.36,-7.5781 -12.05,-10.1172 v -9.2578 c 0,-12.0703 2.33,-21.9063 7.02,-29.4922 4.29,-6.457 11.29,-10.6758 20.98,-12.6367 6.46,-1.3868 12.39,-2.1094 17.78,-2.1094 16.87,0 27.27,6.3476 31.23,19.0156 2.16,7.0391 3.05,23.0938 2.69,48.1328 v 41.3864 c -13.75,-15.683 -32,-23.523 -54.77,-23.523 -24.95,0 -44.11,7.996 -57.48,24.012 -12.3,14.863 -18.44,34.394 -18.44,58.554 0,22.168 5.44,40.86 16.33,56.024 13.78,18.82 33.76,28.234 59.9,28.234 25.4,0 43.56,-5.07 54.46,-15.168 v 6.008 l -12.7,21.902 54.42,-8.035"
         style="fill:#231f20;fill-opacity:1;fill-rule:nonzero;stroke:none"
         transform="matrix(0.13333333,0,0,-0.13333333,0,93.093333)" />
      <path
         id="path38"
         d="m 4059.81,202.227 c -2.52,27.5 -5.58,45.175 -9.18,53.046 -9.39,19.082 -21.82,28.184 -37.31,27.364 -16.61,-0.852 -27.07,-7.727 -31.39,-20.645 -9.37,-27.5 -13.52,-47.012 -12.43,-58.496 1.43,-16.855 2.51,-27.668 3.24,-32.433 1.79,-11.786 4.5,-20.633 8.12,-26.532 7.57,-12.629 19.11,-18.652 34.62,-18.086 21.26,1.114 33.7,8.543 37.31,22.305 6.12,23.301 8.46,41.133 7.02,53.477 z m 23.38,14.492 c -1.44,-26.59 -6.1,-48.985 -13.97,-67.188 -12.92,-27.988 -32.63,-41.718 -59.16,-41.152 -23.67,0.566 -40.34,14.277 -50.02,41.152 -6.81,17.91 -9.66,38.633 -8.6,62.149 1.43,25.195 6.27,47.168 14.53,65.918 12.9,27.996 31.89,41.707 56.99,41.16 24.01,-0.555 41.04,-14.012 51.08,-40.301 7.18,-17.941 10.24,-38.508 9.15,-61.738"
         style="fill:#231f20;fill-opacity:1;fill-rule:nonzero;stroke:none"
         transform="matrix(0.13333333,0,0,-0.13333333,0,93.093333)" />
      <path
         id="path39"
         d="m 4210.38,195.84 v 14.746 c -0.72,11.211 -5.64,21.68 -14.77,31.367 -9.14,9.707 -21.38,14.395 -36.77,14.121 -18.26,-0.566 -31.52,-7.734 -39.74,-21.484 -6.45,-10.684 -9.32,-23.875 -8.59,-39.59 1.76,-37.344 19.66,-55.598 53.65,-54.746 17,0.566 29.12,7.019 36.4,19.375 7.25,12.344 10.52,24.414 9.82,36.211 z m 44.91,88.32 -9.18,-4.648 -8.1,-194.9417 c -1.08,-25.9375 -3.5,-43.9648 -7.26,-54.1211 -3.77,-10.1484 -13,-18.0273 -27.67,-23.67186 C 4190.9,2.25781 4177.44,0 4162.77,0 c -8.24,0 -16.83,1.40625 -25.8,4.21875 -10.4,3.37891 -17.92,7.61715 -22.57,12.65625 -10.03,10.7148 -15.23,29.0039 -15.58,54.9102 v 10.5586 l -13.25,16.4648 60.35,-7.5781 -12.04,-10.1172 v -9.2578 c 0,-12.0703 2.32,-21.9063 7.01,-29.4922 4.3,-6.457 11.29,-10.6758 20.99,-12.6367 6.45,-1.3868 12.38,-2.1094 17.78,-2.1094 16.86,0 27.27,6.3476 31.22,19.0156 2.16,7.0391 3.06,23.0938 2.69,48.1328 v 41.3864 c -13.75,-15.683 -31.99,-23.523 -54.77,-23.523 -24.95,0 -44.11,7.996 -57.47,24.012 -12.31,14.863 -18.45,34.394 -18.45,58.554 0,22.168 5.44,40.86 16.34,56.024 13.78,18.82 33.75,28.234 59.9,28.234 25.4,0 43.57,-5.07 54.45,-15.168 v 6.008 l -12.7,21.902 54.42,-8.035"
         style="fill:#231f20;fill-opacity:1;fill-rule:nonzero;stroke:none"
         transform="matrix(0.13333333,0,0,-0.13333333,0,93.093333)" />
      <path
         id="path40"
         d="m 4360.99,202.227 c -2.53,27.5 -5.6,45.175 -9.2,53.046 -9.39,19.082 -21.82,28.184 -37.31,27.364 -16.6,-0.852 -27.06,-7.727 -31.37,-20.645 -9.39,-27.5 -13.54,-47.012 -12.45,-58.496 1.44,-16.855 2.51,-27.668 3.25,-32.433 1.78,-11.786 4.5,-20.633 8.11,-26.532 7.57,-12.629 19.11,-18.652 34.62,-18.086 21.27,1.114 33.7,8.543 37.32,22.305 6.11,23.301 8.45,41.133 7.03,53.477 z m 23.37,14.492 c -1.44,-26.59 -6.11,-48.985 -13.98,-67.188 -12.92,-27.988 -32.63,-41.718 -59.15,-41.152 -23.68,0.566 -40.35,14.277 -50.03,41.152 -6.81,17.91 -9.66,38.633 -8.59,62.149 1.42,25.195 6.27,47.168 14.52,65.918 12.9,27.996 31.89,41.707 57,41.16 24,-0.555 41.04,-14.012 51.08,-40.301 7.17,-17.941 10.23,-38.508 9.15,-61.738"
         style="fill:#231f20;fill-opacity:1;fill-rule:nonzero;stroke:none"
         transform="matrix(0.13333333,0,0,-0.13333333,0,93.093333)" />
      <path
         id="path41"
         d="m 4288.44,416.117 -64.8,4.93 16.75,18.562 c -5.39,16.934 -21.32,25.399 -47.76,25.399 -15.19,0 -26.7,-3.188 -34.53,-9.543 -7.36,-5.348 -11.03,-12.106 -11.03,-20.254 0,-7.906 3.7,-13.75 11.14,-17.57 4.46,-2.551 13.85,-5.477 28.21,-8.778 l 25.48,-5.949 c 16.08,-3.781 28.03,-7.949 35.83,-12.5 13.65,-8.066 20.47,-19.305 20.47,-33.687 0,-14.391 -4.86,-26.629 -14.58,-36.727 -13.11,-13.125 -32.07,-19.687 -56.84,-19.687 -29.15,0 -50.04,7.871 -62.66,23.613 -6.33,8.359 -9.98,17.246 -10.94,26.644 l -19.67,9.512 67.72,7.621 -17.48,-15.223 c 0.96,-5.597 3.4,-10.429 7.3,-14.472 6.81,-8.145 19.48,-12.188 38,-12.188 24.84,0 37.28,7.969 37.28,23.938 0,12.152 -11.28,20.769 -33.81,25.847 l -21.09,4.946 c -22.95,5.316 -38.58,10.363 -46.86,15.176 -12.22,7.824 -18.31,19.957 -18.31,36.39 0,15.41 5.6,28.313 16.79,38.668 13.61,13.149 34.03,19.727 61.28,19.727 47.17,0 73.44,-18.481 78.79,-55.418 l 15.32,-18.977"
         style="fill:#231f20;fill-opacity:1;fill-rule:nonzero;stroke:none"
         transform="matrix(0.13333333,0,0,-0.13333333,0,93.093333)" />
      <path
         id="path42"
         d="m 4469.09,391.527 -31.2,9.844 -72.55,4.531 c 0,-5.043 -0.73,-19.175 -2.18,-42.367 -1.45,-19.16 -1.7,-29.629 -0.73,-31.387 1.94,-4.55 7.73,-6.816 17.38,-6.816 0.97,0 2.16,0 3.63,0 3.85,0 10.38,0 19.56,0 l 31.14,14.004 -7.26,-38.164 c -14.04,-0.996 -28.57,-1.992 -43.58,-2.988 -1.93,0 -3.88,0 -5.81,0 -21.31,0 -35.84,5.019 -43.57,15.058 -4.37,6.531 -6.55,15.692 -6.55,27.5 v 63.653 l -17.58,-1.129 -24.92,-8.715 17.58,33.285 9.53,-4.531 h 15.39 v 159.547 l -28.65,19.226 98.28,-3.769 -20.92,-15.825 -10.45,-158.796 74.11,1.507 13.94,9.082 15.41,-42.75"
         style="fill:#231f20;fill-opacity:1;fill-rule:nonzero;stroke:none"
         transform="matrix(0.13333333,0,0,-0.13333333,0,93.093333)" />
      <path
         id="path43"
         d="m 4600.05,406.566 c 0.97,34.434 -14.44,52.133 -46.19,53.129 -18.1,0.766 -33,-5.394 -44.73,-18.445 -8.3,-9.359 -13.43,-19.687 -15.39,-30.996 z m 46.58,-32.82 -20.38,-20.137 c -4.38,-12.933 -11.9,-24.207 -22.57,-33.836 -15.06,-13.679 -35.69,-20.515 -61.89,-20.515 -23.79,0 -43.93,8.066 -60.43,24.219 -16.51,16.152 -24.76,41.773 -24.76,76.863 0,21.699 5.59,41.262 16.77,58.691 15.55,25.235 40.1,37.852 73.65,37.852 15.54,0 30.14,-3.664 43.75,-10.988 10.69,-6.075 18.94,-13.332 24.79,-21.797 5.83,-8.469 9.96,-18.629 12.38,-30.5 1.94,-10.114 2.92,-25.137 2.92,-45.09 l -140.25,6.043 c 0.96,-24.672 5.71,-42.473 14.22,-53.399 8.5,-10.937 21.77,-16.394 39.77,-16.394 21.87,0 37.7,8.66 47.43,26.027 l -25.49,9.563 80.09,13.398"
         style="fill:#231f20;fill-opacity:1;fill-rule:nonzero;stroke:none"
         transform="matrix(0.13333333,0,0,-0.13333333,0,93.093333)" />
      <path
         id="path44"
         d="m 4773.85,449.785 -22.58,7.438 c -4.37,0 -9.22,0.117 -14.56,0.351 -1.47,0 -3.16,0 -5.1,0 -16.01,0 -28.41,-4.765 -37.14,-14.277 -10.19,-11.524 -14.56,-22.684 -13.09,-33.457 l 12.05,-75.524 30.9,-14.277 -88.83,-16.543 9.05,13.965 2.61,160.297 -17.48,11.691 73.54,-2.644 -18.94,-15.106 -4.37,-16.617 c 2.91,7.473 8.73,14.563 17.48,21.301 11.16,8.699 22.57,13.066 34.22,13.066 0.97,0 1.94,-0.133 2.92,-0.383 6.31,0 13.59,-0.132 21.84,-0.367 l 17.48,-38.914"
         style="fill:#231f20;fill-opacity:1;fill-rule:nonzero;stroke:none"
         transform="matrix(0.13333333,0,0,-0.13333333,0,93.093333)" />
      <path
         id="path45"
         d="m 4907.29,406.566 c 0.97,34.434 -14.44,52.133 -46.18,53.129 -18.09,0.766 -33,-5.394 -44.72,-18.445 -8.3,-9.359 -13.44,-19.687 -15.39,-30.996 z m 46.6,-32.82 -20.39,-20.137 c -4.39,-12.933 -11.91,-24.207 -22.56,-33.836 -15.06,-13.679 -35.71,-20.515 -61.9,-20.515 -23.79,0 -43.93,8.066 -60.44,24.219 -16.49,16.152 -24.74,41.773 -24.74,76.863 0,21.699 5.57,41.262 16.77,58.691 15.53,25.235 40.08,37.852 73.64,37.852 15.54,0 30.13,-3.664 43.75,-10.988 10.69,-6.075 18.94,-13.332 24.78,-21.797 5.83,-8.469 9.96,-18.629 12.39,-30.5 1.94,-10.114 2.93,-25.137 2.93,-45.09 l -140.27,6.043 c 0.97,-24.672 5.71,-42.473 14.23,-53.399 8.51,-10.937 21.77,-16.394 39.77,-16.394 21.88,0 37.7,8.66 47.43,26.027 l -25.48,9.563 80.09,13.398"
         style="fill:#231f20;fill-opacity:1;fill-rule:nonzero;stroke:none"
         transform="matrix(0.13333333,0,0,-0.13333333,0,93.093333)" />
      <path
         id="path46"
         d="m 5104.87,382.184 c -3.41,24.687 -7.57,40.554 -12.43,47.629 -12.68,17.136 -29.52,25.32 -50.49,24.57 -22.45,-0.766 -36.59,-6.938 -42.44,-18.528 -12.68,-24.703 -18.29,-42.218 -16.83,-52.546 1.94,-15.125 3.4,-24.817 4.38,-29.106 2.44,-10.59 6.11,-18.539 11,-23.82 10.22,-11.36 25.83,-16.77 46.81,-16.25 28.77,0.996 45.61,7.683 50.49,20.027 8.26,20.93 11.44,36.93 9.51,48.024 z m 31.88,12.879 c -1.96,-24.04 -8.27,-44.293 -18.95,-60.727 -17.5,-25.324 -44.21,-37.727 -80.13,-37.207 -32.07,0.5 -54.66,12.898 -67.78,37.207 -9.23,16.187 -13.11,34.91 -11.65,56.18 1.95,22.781 8.5,42.632 19.68,59.601 17.48,25.305 43.23,37.703 77.23,37.207 32.54,-0.519 55.6,-12.672 69.22,-36.445 9.7,-16.203 13.84,-34.816 12.38,-55.816"
         style="fill:#231f20;fill-opacity:1;fill-rule:nonzero;stroke:none"
         transform="matrix(0.13333333,0,0,-0.13333333,0,93.093333)" />
      <path
         id="path47"
         d="m 3731.24,173.75 c 2.15,5.586 3.22,11.699 3.22,18.301 0,10.156 -1.91,17.957 -5.74,23.379 -5.27,7.109 -11.38,10.586 -18.32,10.41 -8.14,-0.164 -14.48,-4.152 -19.03,-11.934 -2.41,-3.906 -3.6,-9.746 -3.6,-17.539 0,-9.316 1.67,-16.769 5.03,-22.355 4.55,-8.465 11.49,-12.617 20.83,-12.449 7.42,0.164 13.28,4.238 17.61,12.187 z m 25.77,-27.285 -28.63,-4.024 12.17,11.161 -1.44,7.863 c -6.93,-14.102 -16.99,-21.152 -30.15,-21.152 -10.54,0 -19.63,5.566 -27.29,16.718 -4.79,6.934 -7.18,17.157 -7.18,30.664 0,14.024 2.15,24.922 6.47,32.703 6.93,12.832 16.86,19.258 29.79,19.258 7.18,0 13.17,-1.941 17.95,-5.847 2.87,-2.383 6.1,-6.282 9.7,-11.7 0.48,0.996 -0.6,9.649 -3.22,25.977 -1.2,2.82 -3.59,6.66 -7.15,11.484 -3.35,2.657 -7.41,3.993 -12.18,3.993 -10.5,0 -17.54,-2.743 -21.1,-8.211 -0.97,-1.817 -1.8,-4.231 -2.51,-7.207 l 20.75,-6.719 -41.15,-4.981 8.49,9.024 c 1.66,23.398 13.67,35.097 36.03,35.097 10.94,0 19.8,-2.605 26.57,-7.804 6.78,-5.196 10.53,-10.731 11.24,-16.602 0.71,-4.859 1.07,-11.16 1.07,-18.863 0,-12.258 -0.96,-29.367 -2.87,-51.332 -1.68,-20.633 -2.4,-31.707 -2.16,-33.211 l 6.8,-6.289"
         style="fill:#231f20;fill-opacity:1;fill-rule:nonzero;stroke:none"
         transform="matrix(0.13333333,0,0,-0.13333333,0,93.093333)" />
      <path
         id="path48"
         d="m 3622.21,565.301 c 0,2.07 0,4.609 0.09,6.512 4,0.957 13.08,3.968 13.78,3.968 0.2,0 0.3,-0.16 0.3,-0.472 0.2,-2.539 0.6,-5.715 0.81,-8.411 l 0.39,-0.164 c 9.48,8.887 11.58,9.204 14.98,9.204 5.58,0 9.18,-6.821 10.67,-10.473 h 0.31 c 9.58,9.523 11.98,10.156 15.97,10.156 5.59,0 8.88,-6.191 10.49,-10.156 1.39,-3.649 2.19,-7.613 2.19,-12.067 0,-11.906 -0.31,-26.031 -0.31,-38.253 l 6.4,-0.477 c 0,-2.063 -0.1,-4.758 -0.1,-6.828 -3.09,0 -6.89,0 -10.39,0 -3.29,0 -6.59,-0.156 -9.37,-0.156 0,2.226 0,4.765 0.1,6.828 l 5.58,0.633 c 0.2,0 0.3,0.32 0.3,0.636 0.1,10.629 0.1,22.86 0.1,31.426 0,5.238 -0.1,9.688 -1.09,13.016 -1.41,4.765 -4,6.347 -6.8,6.347 -3.79,0 -8.38,-4.125 -11.87,-8.25 0.09,-12.062 -0.1,-29.527 -0.1,-43.175 l 6.79,-0.477 c 0,-2.219 0,-4.602 -0.1,-6.828 -3.3,0 -7.3,0 -11.09,0 -3.09,0 -6.49,-0.156 -9.09,-0.156 0,2.226 0,4.613 0.1,6.984 l 5.6,0.477 c 0.2,0 0.4,0.32 0.4,0.636 0,10.473 0,22.543 0,32.539 0,6.035 0,9.688 -1.2,13.172 -1.6,4.449 -3.99,5.406 -6.29,5.406 -3.3,0 -8.38,-3.652 -12.18,-8.578 -0.2,-13.484 -0.29,-29.683 -0.29,-43.175 l 7.08,-0.477 c 0,-2.219 0,-4.758 -0.1,-6.828 -3.29,0 -7.19,0 -10.98,0 -3.09,0 -6.89,-0.156 -9.78,-0.156 0,2.226 0,4.765 0.09,6.984 l 5.89,0.477 c 0.21,0 0.3,0.32 0.3,0.636 v 49.047 l -7.58,0.473"
         style="fill:#231f20;fill-opacity:1;fill-rule:nonzero;stroke:none"
         transform="matrix(0.13333333,0,0,-0.13333333,0,93.093333)" />
      <path
         id="path49"
         d="m 3714.36,608.004 c 3.69,0 4.98,-4.758 4.98,-8.25 0,-4.926 -2.2,-8.578 -5.3,-8.578 -3.08,0 -5.39,3.812 -5.39,8.418 0,4.445 2,8.41 5.6,8.41 z m -11.09,-42.703 c 0,2.226 0,4.609 0,6.668 4.29,0.957 14.37,3.969 15.18,3.969 0.19,0 0.19,-0.157 0.19,-0.473 0,-17.457 -0.19,-43.492 -0.19,-60.32 l 6.98,-0.477 c 0,-2.371 0,-4.602 -0.11,-6.828 -3.18,0 -7.37,0 -11.07,0 -3.39,0 -7.09,-0.156 -10.38,-0.156 0,2.382 0,4.765 0,6.984 l 6.69,0.477 c 0.3,0 0.4,0.32 0.4,0.636 v 49.207 l -7.69,0.313"
         style="fill:#231f20;fill-opacity:1;fill-rule:nonzero;stroke:none"
         transform="matrix(0.13333333,0,0,-0.13333333,0,93.093333)" />
      <path
         id="path50"
         d="m 3747.59,506.258 c -2.09,0 -4.89,0.312 -7.69,4.129 -2.59,3.808 -2.68,7.461 -2.68,12.383 0,8.093 0.09,20.628 0.09,24.601 0,4.758 0.1,14.289 0.1,18.258 -2,0 -4.6,0 -6.89,0 0,2.539 0.11,5.394 0.2,7.777 2.09,0 4.29,0.157 6.39,0.313 0.2,0 0.6,0.476 0.6,1.117 0.1,4.437 0.2,10.148 0.3,14.758 2.59,2.695 6.78,5.394 7.09,5.394 0.19,0 0.3,-0.16 0.3,-0.472 -0.11,-5.395 -0.2,-13.969 -0.2,-20.637 5.08,0 10.57,0 15.67,0.16 0,-2.859 -0.2,-5.715 -0.29,-8.254 -4.5,0 -9.9,0 -15.58,0 0,-2.383 0,-12.699 0,-17.781 -0.1,-6.512 -0.1,-15.715 -0.1,-23.492 0,-6.664 2.99,-9.688 6.49,-9.688 2.29,0 6.08,0.957 9.58,2.383 0.3,-2.062 0.49,-4.602 0.7,-6.984 -4.7,-2.696 -10.39,-3.965 -13.98,-3.965 h -0.1"
         style="fill:#231f20;fill-opacity:1;fill-rule:nonzero;stroke:none"
         transform="matrix(0.13333333,0,0,-0.13333333,0,93.093333)" />
      <path
         id="path51"
         d="m 3795.31,518.633 c 0.2,-0.785 0.31,-1.27 0.9,-1.899 1.4,-1.746 4.09,-3.336 6.89,-3.336 2.79,0 5.39,0.321 7.49,2.54 1.49,1.753 2.79,4.449 2.79,8.89 0,8.094 -2.99,9.051 -11.29,13.176 -8.09,3.809 -11.28,8.887 -11.28,17.777 0,7.621 3.1,13.172 6.3,16.032 2.99,2.699 6.98,4.125 11.87,4.125 5.3,0 8.79,-1.899 9.79,-2.856 0.4,-5.711 0.8,-11.59 1.09,-17.457 -1.49,-0.316 -3.39,-0.797 -5.08,-1.113 l -1.4,10.004 c -0.11,0.785 -0.4,1.425 -0.7,1.742 -1.29,1.582 -3.5,2.383 -5.88,2.383 -2.61,0 -4.81,-1.27 -6.2,-3.012 -1.39,-1.598 -2.49,-4.137 -2.49,-8.262 0,-6.351 1.89,-7.621 9.88,-11.429 7.19,-3.333 12.77,-6.821 12.77,-19.043 0,-6.989 -2.19,-12.856 -6.38,-16.829 -2.7,-2.699 -7.19,-3.968 -12.08,-3.968 -5.4,0 -9.79,1.586 -11.99,3.011 -0.5,6.2 -0.99,12.223 -1.49,18.414 1.7,0.641 3.49,1.114 5.18,1.43 l 1.31,-10.32"
         style="fill:#231f20;fill-opacity:1;fill-rule:nonzero;stroke:none"
         transform="matrix(0.13333333,0,0,-0.13333333,0,93.093333)" />
      <path
         id="path52"
         d="m 3849.61,568.48 c -3.4,0 -5.68,-1.91 -7.39,-4.921 -1.29,-2.383 -3.89,-7.305 -4.19,-15.395 5.69,0 13.78,0.156 19.47,0.477 0.8,0 1.3,0.476 1.3,1.746 0,5.394 -1.2,10.476 -2.7,13.332 -1.49,2.851 -3.49,4.761 -6.39,4.761 z m -20.07,-30.32 c 0,20.633 8.39,37.778 21.27,37.778 5.2,0 9.18,-3.012 11.78,-8.098 2.9,-5.863 3.8,-13.641 3.8,-20.789 -0.5,-1.906 -2.41,-5.559 -3.4,-5.711 -5.89,-0.317 -19.06,-0.477 -25.36,-0.477 -0.1,-8.73 0.99,-15.238 3.3,-19.531 3,-5.551 6.19,-6.508 10.28,-6.508 4.59,0 9.78,2.867 13.27,5.082 0.5,-2.215 0.91,-4.918 1.11,-7.144 -5.49,-4.282 -11.59,-6.664 -15.88,-6.664 -12.97,0 -20.17,13.492 -20.17,31.906 v 0.156"
         style="fill:#231f20;fill-opacity:1;fill-rule:nonzero;stroke:none"
         transform="matrix(0.13333333,0,0,-0.13333333,0,93.093333)" />
      <path
         id="path53"
         d="m 3883.66,608.004 c 3.69,0 4.99,-4.758 4.99,-8.25 0,-4.926 -2.2,-8.578 -5.3,-8.578 -3.09,0 -5.38,3.812 -5.38,8.418 0,4.445 2,8.41 5.59,8.41 z m -11.08,-42.703 c 0,2.226 0,4.609 0,6.668 4.3,0.957 14.36,3.969 15.17,3.969 0.2,0 0.2,-0.157 0.2,-0.473 0,-17.457 -0.2,-43.492 -0.2,-60.32 l 7,-0.477 c 0,-2.371 0,-4.602 -0.11,-6.828 -3.19,0 -7.38,0 -11.08,0 -3.39,0 -7.09,-0.156 -10.39,-0.156 0,2.382 0,4.765 0,6.984 l 6.69,0.477 c 0.31,0 0.4,0.32 0.4,0.636 v 49.207 l -7.68,0.313"
         style="fill:#231f20;fill-opacity:1;fill-rule:nonzero;stroke:none"
         transform="matrix(0.13333333,0,0,-0.13333333,0,93.093333)" />
      <path
         id="path54"
         d="m 3899.03,565.145 c 0,2.066 0.1,4.449 0.1,6.511 4,1.114 13.08,4.125 13.78,4.125 0.2,0 0.2,-0.16 0.2,-0.316 0.3,-3.168 0.8,-7.297 1.1,-9.524 l 0.5,-0.156 c 9.88,9.68 12.08,10.153 16.36,10.153 5.2,0 8.79,-5.715 10.59,-10.637 1.49,-3.961 1.99,-8.09 1.99,-11.742 0,-11.59 -0.19,-26.508 -0.3,-38.414 l 6.4,-0.477 c 0,-2.063 0,-4.602 -0.1,-6.828 -3.19,0 -6.99,0 -10.49,0 -3.1,0 -6.79,-0.156 -9.58,-0.156 0,2.066 0,4.613 0.1,6.828 l 5.79,0.476 c 0.19,0.157 0.3,0.321 0.3,0.633 0.1,8.574 0.1,20 0.1,28.731 0,6.351 0,12.543 -1.3,16.039 -1.89,5.394 -4.39,6.027 -6.79,6.027 -3.69,0 -9.28,-4.285 -13.27,-9.207 -0.11,-12.066 -0.2,-30.473 -0.2,-42.066 l 7.18,-0.477 c 0,-2.219 -0.09,-4.758 -0.09,-6.828 -3.29,0 -7.49,0 -11.28,0 -3.2,0 -6.69,-0.156 -9.69,-0.156 0,2.226 0,4.765 0.1,6.984 l 5.9,0.477 c 0.19,0 0.39,0.32 0.39,0.636 l -0.1,49.047 -7.69,0.317"
         style="fill:#231f20;fill-opacity:1;fill-rule:nonzero;stroke:none"
         transform="matrix(0.13333333,0,0,-0.13333333,0,93.093333)" />
      <path
         id="path55"
         d="m 3976.19,568.48 c -3.39,0 -5.68,-1.91 -7.38,-4.921 -1.3,-2.383 -3.9,-7.305 -4.2,-15.395 5.7,0 13.78,0.156 19.47,0.477 0.8,0 1.3,0.476 1.3,1.746 0,5.394 -1.2,10.476 -2.69,13.332 -1.5,2.851 -3.5,4.761 -6.4,4.761 z m -20.06,-30.32 c 0,20.633 8.38,37.778 21.26,37.778 5.2,0 9.19,-3.012 11.79,-8.098 2.89,-5.863 3.79,-13.641 3.79,-20.789 -0.5,-1.906 -2.4,-5.559 -3.4,-5.711 -5.89,-0.317 -19.06,-0.477 -25.35,-0.477 -0.11,-8.73 0.99,-15.238 3.29,-19.531 3,-5.551 6.19,-6.508 10.28,-6.508 4.59,0 9.79,2.867 13.27,5.082 0.5,-2.215 0.91,-4.918 1.12,-7.144 -5.5,-4.282 -11.58,-6.664 -15.89,-6.664 -12.97,0 -20.16,13.492 -20.16,31.906 v 0.156"
         style="fill:#231f20;fill-opacity:1;fill-rule:nonzero;stroke:none"
         transform="matrix(0.13333333,0,0,-0.13333333,0,93.093333)" />
      <path
         id="path56"
         d="m 3999.06,565.301 c 0,2.07 0,4.609 0.1,6.512 3.99,0.957 13.08,3.968 13.77,3.968 0.2,0 0.3,-0.16 0.3,-0.472 0.2,-2.539 0.61,-5.715 0.81,-8.411 l 0.39,-0.164 c 9.49,8.887 11.59,9.204 14.98,9.204 5.59,0 9.18,-6.821 10.68,-10.473 h 0.3 c 9.58,9.523 11.98,10.156 15.98,10.156 5.58,0 8.87,-6.191 10.48,-10.156 1.39,-3.649 2.19,-7.613 2.19,-12.067 0,-11.906 -0.3,-26.031 -0.3,-38.253 l 6.4,-0.477 c 0,-2.063 -0.1,-4.758 -0.1,-6.828 -3.1,0 -6.9,0 -10.39,0 -3.29,0 -6.59,-0.156 -9.38,-0.156 0,2.226 0,4.765 0.1,6.828 l 5.59,0.633 c 0.19,0 0.3,0.32 0.3,0.636 0.1,10.629 0.1,22.86 0.1,31.426 0,5.238 -0.1,9.688 -1.1,13.016 -1.4,4.765 -3.99,6.347 -6.79,6.347 -3.79,0 -8.38,-4.125 -11.88,-8.25 0.1,-12.062 -0.1,-29.527 -0.1,-43.175 l 6.79,-0.477 c 0,-2.219 0,-4.602 -0.1,-6.828 -3.3,0 -7.29,0 -11.08,0 -3.1,0 -6.49,-0.156 -9.09,-0.156 0,2.226 0,4.613 0.1,6.984 l 5.59,0.477 c 0.21,0 0.4,0.32 0.4,0.636 0,10.473 0,22.543 0,32.539 0,6.035 0,9.688 -1.19,13.172 -1.6,4.449 -3.99,5.406 -6.3,5.406 -3.29,0 -8.38,-3.652 -12.18,-8.578 -0.19,-13.484 -0.29,-29.683 -0.29,-43.175 l 7.08,-0.477 c 0,-2.219 0,-4.758 -0.1,-6.828 -3.29,0 -7.18,0 -10.97,0 -3.1,0 -6.9,-0.156 -9.79,-0.156 0,2.226 0,4.765 0.1,6.984 l 5.89,0.477 c 0.2,0 0.3,0.32 0.3,0.636 v 49.047 l -7.59,0.473"
         style="fill:#231f20;fill-opacity:1;fill-rule:nonzero;stroke:none"
         transform="matrix(0.13333333,0,0,-0.13333333,0,93.093333)" />
      <path
         id="path57"
         d="m 4106.87,560.914 c 0,0 39.89,0 67.59,0 27.71,0 118.58,3.816 118.58,3.816 l -2.21,-19.089 c 0,0 -38.78,3.816 -79.79,3.816 -41.01,0 -104.17,-3.816 -104.17,-3.816 v 15.273"
         style="fill:#231f20;fill-opacity:1;fill-rule:nonzero;stroke:none"
         transform="matrix(0.13333333,0,0,-0.13333333,0,93.093333)" />
      <path
         id="path58"
         d="m 5145.88,550.727 c 0,0 -159.61,0 -270.47,0.015 -110.83,0 -474.4,-3.105 -474.4,-3.105 l 8.85,15.64 c 0,0 155.19,-3.136 319.24,-3.136 164.06,-0.024 416.78,3.113 416.78,3.113 v -12.527"
         style="fill:#231f20;fill-opacity:1;fill-rule:nonzero;stroke:none"
         transform="matrix(0.13333333,0,0,-0.13333333,0,93.093333)" />
    </g>
  </g>
</svg>
